<svg xmlns="http://www.w3.org/2000/svg" viewBox="132 58 248 284" width="32" height="32">
  <defs>
    <linearGradient id="hexGrad" x1="0%" y1="0%" x2="100%" y2="100%">
      <stop offset="0%" style="stop-color:#4338CA"/>
      <stop offset="100%" style="stop-color:#6D5BF7"/>
    </linearGradient>
    <linearGradient id="flaskGrad" x1="0%" y1="0%" x2="100%" y2="100%">
      <stop offset="0%" style="stop-color:#3B35B0"/>
      <stop offset="100%" style="stop-color:#5548E0"/>
    </linearGradient>
    <linearGradient id="liqGrad" x1="0%" y1="0%" x2="0%" y2="100%">
      <stop offset="0%" style="stop-color:#A5B4FC;stop-opacity:0.45"/>
      <stop offset="100%" style="stop-color:#818CF8;stop-opacity:0.7"/>
    </linearGradient>
  </defs>
  <polygon points="256,68 370,134 370,266 256,332 142,266 142,134" fill="url(#hexGrad)"/>
  <g transform="translate(256, 195)">
    <path d="M -15,-70 L -15,-24 L -48,36 Q -54,48 -46,58 Q -38,66 -26,66 L 26,66 Q 38,66 46,58 Q 54,48 48,36 L 15,-24 L 15,-70 Z" fill="url(#flaskGrad)" stroke="#FFFFFF" stroke-width="2.5" stroke-opacity="0.85"/>
    <rect x="-20" y="-76" width="40" height="8" rx="4" fill="#5B54E8" stroke="#FFFFFF" stroke-width="2" stroke-opacity="0.85"/>
    <path d="M -40,30 Q -26,22 -10,30 Q 6,38 20,28 Q 32,22 42,30 L 48,36 Q 54,48 46,58 Q 38,66 26,66 L -26,66 Q -38,66 -46,58 Q -54,48 -48,36 Z" fill="url(#liqGrad)"/>
    <rect x="-3.5" y="-56" width="7" height="20" rx="2" fill="#FFFFFF" opacity="0.95"/>
    <rect x="-10" y="-49.5" width="20" height="7" rx="2" fill="#FFFFFF" opacity="0.95"/>
  </g>
  <g transform="translate(234, 284)" opacity="0.85">
    <rect x="0" y="0" width="3" height="11" rx="1" fill="#FFFFFF"/>
    <rect x="5" y="0" width="2" height="11" rx="1" fill="#FFFFFF"/>
    <rect x="9" y="0" width="4" height="11" rx="1" fill="#FFFFFF"/>
    <rect x="15" y="0" width="2" height="11" rx="1" fill="#FFFFFF"/>
    <rect x="19" y="0" width="3" height="11" rx="1" fill="#FFFFFF"/>
    <rect x="24" y="0" width="2" height="11" rx="1" fill="#FFFFFF"/>
    <rect x="28" y="0" width="4" height="11" rx="1" fill="#FFFFFF"/>
    <rect x="34" y="0" width="2" height="11" rx="1" fill="#FFFFFF"/>
    <rect x="38" y="0" width="3" height="11" rx="1" fill="#FFFFFF"/>
  </g>
</svg>
