<svg xmlns="http://www.w3.org/2000/svg" viewBox="0 0 512 512" width="512" height="512">
  <defs>
    <linearGradient id="flask" x1="0%" y1="0%" x2="100%" y2="100%">
      <stop offset="0%" style="stop-color:#4338CA"/>
      <stop offset="100%" style="stop-color:#6D5BF7"/>
    </linearGradient>
    <linearGradient id="liq" x1="0%" y1="0%" x2="0%" y2="100%">
      <stop offset="0%" style="stop-color:#A5B4FC;stop-opacity:0.5"/>
      <stop offset="100%" style="stop-color:#818CF8;stop-opacity:0.8"/>
    </linearGradient>
  </defs>
  <g transform="translate(256, 272)">
    <!-- Flask body -->
    <path d="M -72,-224 L -72,-88 L -208,152 Q -237,208 -200,248 Q -168,280 -112,280 L 112,280 Q 168,280 200,248 Q 237,208 208,152 L 72,-88 L 72,-224 Z" fill="url(#flask)"/>
    <!-- Flask rim -->
    <rect x="-104" y="-253" width="208" height="40" rx="20" fill="url(#flask)"/>
    <!-- Liquid area -->
    <path d="M -176,128 Q -112,88 -48,128 Q 16,168 80,120 Q 144,88 192,128 L 208,152 Q 237,208 200,248 Q 168,280 112,280 L -112,280 Q -168,280 -200,248 Q -237,208 -208,152 Z" fill="url(#liq)"/>
    <!-- Barcode bars in liquid -->
    <g opacity="0.85">
      <rect x="-112" y="144" width="21" height="96" rx="5" fill="#FFFFFF"/>
      <rect x="-77" y="144" width="13" height="96" rx="4" fill="#FFFFFF"/>
      <rect x="-51" y="144" width="26" height="96" rx="5" fill="#FFFFFF"/>
      <rect x="-6" y="144" width="13" height="96" rx="4" fill="#FFFFFF"/>
      <rect x="22" y="144" width="21" height="96" rx="5" fill="#FFFFFF"/>
      <rect x="59" y="144" width="13" height="96" rx="4" fill="#FFFFFF"/>
      <rect x="88" y="144" width="26" height="96" rx="5" fill="#FFFFFF"/>
    </g>
    <!-- Plus/cross -->
    <rect x="-18" y="-184" width="36" height="96" rx="11" fill="#FFFFFF" opacity="0.95"/>
    <rect x="-51" y="-157" width="102" height="36" rx="11" fill="#FFFFFF" opacity="0.95"/>
  </g>
</svg>
